# xmcd
#
# Track frame offsets:
#	150
#	13459
#	35023
#	56705
#	78928
#	104780
#	128509
#	155354
#	177940
#	195865
#
# Disc length: 2869 seconds
#
# Revision: 2817577858
# Processed by: cddbd v1.5.2PL0 Copyright (c) Steve Scherf et al.
# Submitted via: EZCDAudioConverter 8.1.0.1
#
DISCID=7f0b330a
DTITLE=Lucinda Williams - Down Where The Spirit Meets The Bone
DYEAR=2014
DGENRE=Country
TTITLE0=Compassion
TTITLE1=Protection
TTITLE2=Burning Bridges
TTITLE3=East Side Of Town
TTITLE4=West Memphis
TTITLE5=Cold Day In Hell
TTITLE6=Foolishness
TTITLE7=Wrong Number
TTITLE8=Stand Right By Each Other
TTITLE9=It's Gonna Rain
EXTD=
EXTT0=
EXTT1=
EXTT2=
EXTT3=
EXTT4=
EXTT5=
EXTT6=
EXTT7=
EXTT8=
EXTT9=
PLAYORDER=
